<?xml version="1.0" encoding="UTF-8"?>
<svg version="1.1" xmlns="http://www.w3.org/2000/svg" width="725" height="344">
<path d="M0 0 C1.40134082 0.73965843 2.79954101 1.48552597 4.1875 2.25 C4.1875 2.91 4.1875 3.57 4.1875 4.25 C4.79078125 4.20359375 5.3940625 4.1571875 6.015625 4.109375 C12.58435864 3.81272251 12.58435864 3.81272251 15.6875 6.0625 C18.44808428 10.08835207 18.27721975 13.49485322 18.1875 18.25 C19.6725 18.745 19.6725 18.745 21.1875 19.25 C22.28515625 21.32421875 22.28515625 21.32421875 23.25 23.9375 C23.57097656 24.78699219 23.89195312 25.63648438 24.22265625 26.51171875 C24.54105469 27.41535156 24.85945313 28.31898438 25.1875 29.25 C25.53167969 30.21292969 25.87585938 31.17585938 26.23046875 32.16796875 C29.29945495 42.05135695 29.66133518 51.24347566 27.1875 61.25 C26.97867188 62.136875 26.76984375 63.02375 26.5546875 63.9375 C25.20021477 69.04401789 23.27360877 72.96061733 20.3046875 77.30859375 C19.10741426 79.38916997 18.68045933 81.08754348 18.25 83.4375 C16.8482411 88.46734076 15.62089976 89.57323034 11.1875 92.25 C7.3125 92.5625 7.3125 92.5625 4.1875 92.25 C4.1875 92.91 4.1875 93.57 4.1875 94.25 C1.6276499 95.40208295 -0.93508513 96.54679373 -3.5 97.6875 C-4.22123047 98.01298828 -4.94246094 98.33847656 -5.68554688 98.67382812 C-18.40091036 104.30574711 -33.80257939 103.91474127 -46.8125 99.25 C-47.67875 99.01023437 -48.545 98.77046875 -49.4375 98.5234375 C-50.2625 98.28882813 -51.0875 98.05421875 -51.9375 97.8125 C-52.66195312 97.60753906 -53.38640625 97.40257812 -54.1328125 97.19140625 C-55.8125 96.25 -55.8125 96.25 -56.5546875 94.15234375 C-56.68230469 93.21068359 -56.68230469 93.21068359 -56.8125 92.25 C-57.42738281 92.27320313 -58.04226562 92.29640625 -58.67578125 92.3203125 C-59.48402344 92.33835937 -60.29226562 92.35640625 -61.125 92.375 C-62.32576172 92.40980469 -62.32576172 92.40980469 -63.55078125 92.4453125 C-65.8125 92.25 -65.8125 92.25 -68.8125 90.25 C-68.8125 89.26 -68.8125 88.27 -68.8125 87.25 C-69.4725 86.92 -70.1325 86.59 -70.8125 86.25 C-71.0290625 84.5484375 -71.0290625 84.5484375 -71.25 82.8125 C-71.435625 81.636875 -71.62125 80.46125 -71.8125 79.25 C-72.8025 78.59 -73.7925 77.93 -74.8125 77.25 C-75.875 75 -75.875 75 -76.8125 72.25 C-77.1425 71.30125 -77.4725 70.3525 -77.8125 69.375 C-83.19942304 52.54086551 -83.28669499 37.73305673 -75.75 21.4375 C-73.8125 18.25 -73.8125 18.25 -70.8125 17.25 C-70.874375 16.21875 -70.93625 15.1875 -71 14.125 C-70.78966982 9.77817625 -70.56323591 7.64796789 -67.8125 4.25 C-65.24357132 3.7406056 -62.77551842 3.62099211 -60.16015625 3.515625 C-56.92666568 3.14977249 -56.00287082 1.57726899 -53.8125 -0.75 C-49.13565116 -2.63021964 -44.86042621 -3.75 -39.8125 -3.75 C-39.4825 -4.41 -39.1525 -5.07 -38.8125 -5.75 C-25.97978307 -10.02757231 -11.58984137 -5.69752706 0 0 Z " fill="#F8F8F8" transform="translate(179.8125,121.75)"/>
<path d="M0 0 C2.31 0 4.62 0 7 0 C7.3403125 1.175625 7.3403125 1.175625 7.6875 2.375 C8.7773745 5.19354704 8.7773745 5.19354704 11.5 6.3125 C13.88926704 7.08838549 13.88926704 7.08838549 16 7 C16.66 6.505 17.32 6.01 18 5.5 C22.32647327 3.33676337 26.24674047 3.42242823 31 4 C34.0625 5.25 34.0625 5.25 36 7 C36.8125 9.1875 36.8125 9.1875 37 11 C38.175625 9.7625 38.175625 9.7625 39.375 8.5 C42 6 42 6 44 6 C44 5.34 44 4.68 44 4 C45.58294782 3.94562393 47.16644256 3.90703729 48.75 3.875 C50.07257813 3.84019531 50.07257813 3.84019531 51.421875 3.8046875 C54.17990095 4.01362886 55.69903523 4.48936661 58 6 C58.99 7.485 58.99 7.485 60 9 C60.804375 8.175 61.60875 7.35 62.4375 6.5 C65.84670282 3.64822608 68.53806617 3.43320843 72.88671875 3.7109375 C76.96308796 4.2685185 79.15520144 4.98041553 81.8125 8.1875 C83.78068179 12.84898318 83.54516008 16.45537978 81.875 21.1875 C79.54454239 24.68318641 77.82778543 26.22787712 74 28 C69.22447255 28.34532033 65.91567289 27.61667766 61.9375 24.9375 C60.9784375 23.9784375 60.9784375 23.9784375 60 23 C59.21625 23.825 58.4325 24.65 57.625 25.5 C53.94389582 28.64132688 50.64496851 28.41677566 45.9765625 28.17578125 C45.32429688 28.11777344 44.67203125 28.05976563 44 28 C44 27.34 44 26.68 44 26 C40.73454239 24.11608215 37.71888239 23.50712033 34 23 C33.505 24.485 33.505 24.485 33 26 C21.42394416 28.60367599 21.42394416 28.60367599 15 25 C14.236875 25.474375 13.47375 25.94875 12.6875 26.4375 C9.59443109 28.23579588 8.78669844 28.12281409 5.375 27.5 C2.37911964 26.66614663 1.14665255 26.14233924 -1.125 23.9375 C-2.36066351 19.78920107 -1.76112743 16.20912638 -1 12 C-1.99 12 -2.98 12 -4 12 C-3.90460938 12.61488281 -3.80921875 13.22976562 -3.7109375 13.86328125 C-3.60007812 14.67152344 -3.48921875 15.47976562 -3.375 16.3125 C-3.25898438 17.11300781 -3.14296875 17.91351563 -3.0234375 18.73828125 C-3 21 -3 21 -5 24 C-8.95163187 27.31427189 -13.32121351 27.92541262 -18.33203125 28.25 C-21.27254508 27.97446137 -22.44099893 27.50853485 -24.625 25.5625 C-27.59565777 21.90696436 -27.92280796 18.63152235 -28 14 C-27.67 13.34 -27.34 12.68 -27 12 C-30.14397465 12.60751405 -30.14397465 12.60751405 -33 15 C-33.8637033 18.99259074 -33.98735952 22.92344518 -34 27 C-40.15234375 27.09765625 -40.15234375 27.09765625 -42 27 C-43.62200515 25.37799485 -43.1299075 23.57976969 -43.1328125 21.34375 C-43.13410156 20.40402344 -43.13539063 19.46429688 -43.13671875 18.49609375 C-43.13285156 17.50738281 -43.12898438 16.51867187 -43.125 15.5 C-43.12886719 14.51128906 -43.13273437 13.52257812 -43.13671875 12.50390625 C-43.13542969 11.56417969 -43.13414062 10.62445313 -43.1328125 9.65625 C-43.13168457 8.78806641 -43.13055664 7.91988281 -43.12939453 7.02539062 C-43 5 -43 5 -42 4 C-39.46950598 3.92686433 -36.96695163 3.90752473 -34.4375 3.9375 C-33.72658203 3.94201172 -33.01566406 3.94652344 -32.28320312 3.95117188 C-30.52209987 3.96299136 -28.76103964 3.98092737 -27 4 C-26.67 4.99 -26.34 5.98 -26 7 C-24.72012057 6.36006028 -23.45882829 5.68054181 -22.2265625 4.953125 C-19.4842637 3.77922867 -17.34987333 3.73396295 -14.375 3.75 C-13.41335938 3.74484375 -12.45171875 3.7396875 -11.4609375 3.734375 C-9 4 -9 4 -7 6 C-6.505 7.485 -6.505 7.485 -6 9 C-2.91910327 6.22719294 -1.31224548 3.93673644 0 0 Z M13 9 C14 11 14 11 14 11 Z M-17 12 C-17.66 12.66 -18.32 13.32 -19 14 C-19 15.32 -19 16.64 -19 18 C-15.98968256 18.93423645 -15.13349732 19.04449911 -12 18 C-12.33 16.35 -12.66 14.7 -13 13 C-14.89179203 12.3185177 -14.89179203 12.3185177 -17 12 Z M8 13 C8 14.98 8 16.96 8 19 C10.475 19.99 10.475 19.99 13 21 C13 18.03 13 15.06 13 12 C10.0745356 11.7763932 10.0745356 11.7763932 8 13 Z M24 12 C23.34 13.65 22.68 15.3 22 17 C23.32 17.99 24.64 18.98 26 20 C28.28728734 18.16116119 28.28728734 18.16116119 28.125 15.375 C28.08375 14.59125 28.0425 13.8075 28 13 C26.68 12.67 25.36 12.34 24 12 Z M48 12 C48 12.66 48 13.32 48 14 C47.34 14 46.68 14 46 14 C46 15.32 46 16.64 46 18 C48.7967021 19.2562378 48.7967021 19.2562378 50.8125 18.4375 C53.9288112 17.81423776 56.0902671 18.87578502 59 20 C59 17.69 59 15.38 59 13 C58.01 13 57.02 13 56 13 C53.32643843 12.71372955 50.66634425 12.34968449 48 12 Z M69 12 C67.78309467 13.76529595 67.78309467 13.76529595 67 16 C67.78309467 18.23470405 67.78309467 18.23470405 69 20 C70.65 19.34 72.3 18.68 74 18 C73.67 16.35 73.34 14.7 73 13 C71.68 12.67 70.36 12.34 69 12 Z M37 19 C38 21 38 21 38 21 Z " fill="#E2E2E2" transform="translate(444,154)"/>
<path d="M0 0 C0.81210937 -0.02900391 1.62421875 -0.05800781 2.4609375 -0.08789062 C6.58037006 -0.13150025 8.69716471 -0.03481233 12.265625 2.20703125 C14.25 4.3125 14.25 4.3125 15.25 6.3125 C15.86875 5.508125 16.4875 4.70375 17.125 3.875 C19.25 1.3125 19.25 1.3125 21.25 0.3125 C22.87165752 0.19101695 24.49884327 0.13706348 26.125 0.125 C27.42050781 0.10373047 27.42050781 0.10373047 28.7421875 0.08203125 C31.3741288 0.32390748 32.98980544 0.98266459 35.25 2.3125 C35.58 1.6525 35.91 0.9925 36.25 0.3125 C37.87418745 0.23159029 39.49951745 0.17335005 41.125 0.125 C42.02992188 0.09019531 42.93484375 0.05539063 43.8671875 0.01953125 C45.04667969 0.16455078 45.04667969 0.16455078 46.25 0.3125 C46.91 1.3025 47.57 2.2925 48.25 3.3125 C48.91 2.3225 49.57 1.3325 50.25 0.3125 C52.6328125 0.01953125 52.6328125 0.01953125 55.375 0.125 C56.28507812 0.15207031 57.19515625 0.17914063 58.1328125 0.20703125 C58.83148438 0.24183594 59.53015625 0.27664062 60.25 0.3125 C60.745 1.7975 60.745 1.7975 61.25 3.3125 C59.4375 6.3125 59.4375 6.3125 57.25 9.3125 C56.59 10.3025 55.93 11.2925 55.25 12.3125 C55.683125 12.93898437 56.11625 13.56546875 56.5625 14.2109375 C57.119375 15.02820313 57.67625 15.84546875 58.25 16.6875 C58.806875 17.49960938 59.36375 18.31171875 59.9375 19.1484375 C61.25 21.3125 61.25 21.3125 61.25 23.3125 C59.66986783 23.56278811 58.08557694 23.78690946 56.5 24 C55.17742187 24.19142578 55.17742187 24.19142578 53.828125 24.38671875 C50.69323483 24.29647191 49.53176413 23.38634637 47.25 21.3125 C46.198125 22.0859375 46.198125 22.0859375 45.125 22.875 C41.61988566 24.62755717 39.9572941 24.40783689 36.25 23.3125 C35.755 22.3225 35.755 22.3225 35.25 21.3125 C34.21875 21.8075 33.1875 22.3025 32.125 22.8125 C28.67307022 24.27400253 26.03317988 24.80595825 22.25 24.3125 C19.375 22.9375 19.375 22.9375 17.25 21.3125 C17.25 20.6525 17.25 19.9925 17.25 19.3125 C15.19729537 21.15438612 15.19729537 21.15438612 14.25 23.3125 C12.27 23.3125 10.29 23.3125 8.25 23.3125 C8.25 23.9725 8.25 24.6325 8.25 25.3125 C7.59 25.3125 6.93 25.3125 6.25 25.3125 C4.83365167 22.47980334 4.9036995 19.83783562 4.6875 16.6875 C4.56181641 14.90472656 4.56181641 14.90472656 4.43359375 13.0859375 C4.37300781 12.17070312 4.31242187 11.25546875 4.25 10.3125 C3.26 10.3125 2.27 10.3125 1.25 10.3125 C-0.03446919 12.88143838 -0.07977144 15.07826337 -0.3125 17.9375 C-0.39628906 18.94039062 -0.48007812 19.94328125 -0.56640625 20.9765625 C-0.62699219 21.74742187 -0.68757813 22.51828125 -0.75 23.3125 C-3.39 23.3125 -6.03 23.3125 -8.75 23.3125 C-8.94588601 19.6670658 -9.13030536 16.0211421 -9.3125 12.375 C-9.36857422 11.33408203 -9.42464844 10.29316406 -9.48242188 9.22070312 C-9.53076172 8.23134766 -9.57910156 7.24199219 -9.62890625 6.22265625 C-9.6760376 5.30621338 -9.72316895 4.38977051 -9.77172852 3.44555664 C-9.71965361 -1.66656112 -3.86364928 0.04513609 0 0 Z M25.25 8.3125 C27.23 9.3025 27.23 9.3025 29.25 10.3125 C29.25 9.6525 29.25 8.9925 29.25 8.3125 C27.93 8.3125 26.61 8.3125 25.25 8.3125 Z M38.25 8.3125 C37.92 10.6225 37.59 12.9325 37.25 15.3125 C38.57 14.9825 39.89 14.6525 41.25 14.3125 C41.25 12.6625 41.25 11.0125 41.25 9.3125 C40.26 8.9825 39.27 8.6525 38.25 8.3125 Z M34.25 14.3125 C35.25 16.3125 35.25 16.3125 35.25 16.3125 Z " fill="#E3E3E3" transform="translate(304.75,157.6875)"/>
<path d="M0 0 C7 0 14 0 21 0 C22.01513672 -0.03480469 22.01513672 -0.03480469 23.05078125 -0.0703125 C23.79714844 -0.08835938 24.54351562 -0.10640625 25.3125 -0.125 C26.05113281 -0.14820313 26.78976562 -0.17140625 27.55078125 -0.1953125 C30 0 30 0 36 2 C36 9.59 36 17.18 36 25 C35.34 25 34.68 25 34 25 C34 24.34 34 23.68 34 23 C29.34947128 22.73067479 29.34947128 22.73067479 25 24 C17.77752963 23.54143045 17.77752963 23.54143045 15.2890625 21.80859375 C13.51630034 19.32135472 13.49051227 17.33870855 13.3125 14.3125 C13.24675781 13.31863281 13.18101562 12.32476562 13.11328125 11.30078125 C13.07589844 10.54152344 13.03851563 9.78226563 13 9 C12.01 9 11.02 9 10 9 C9.67 13.62 9.34 18.24 9 23 C6.03 23 3.06 23 0 23 C-0.89659016 16.94801643 -1.09770731 11.11213499 -1 5 C-1 4.01 -1 3.02 -1 2 C-0.67 1.34 -0.34 0.68 0 0 Z M20 8 C20 8.33 20 8.66 20 9 C21.65 9 23.3 9 25 9 C25 8.67 25 8.34 25 8 C23.35 8 21.7 8 20 8 Z M23 14 C23 14.99 23 15.98 23 17 C24.32 16.67 25.64 16.34 27 16 C27 15.34 27 14.68 27 14 C25.68 14 24.36 14 23 14 Z " fill="#DDDDDD" transform="translate(257,158)"/>
<path d="M0 0 C0.83265381 0.00523682 1.66530762 0.01047363 2.52319336 0.01586914 C3.42231445 0.0190918 4.32143555 0.02231445 5.24780273 0.02563477 C6.66609375 0.03820312 6.66609375 0.03820312 8.11303711 0.05102539 C9.06243164 0.05553711 10.01182617 0.06004883 10.98999023 0.06469727 C13.34356776 0.07652429 15.69702188 0.09300514 18.05053711 0.11352539 C18.33928711 0.91790039 18.62803711 1.72227539 18.92553711 2.55102539 C19.78316279 5.24617219 19.78316279 5.24617219 22.05053711 6.11352539 C22.1048367 7.86317897 22.14346534 9.61332326 22.17553711 11.36352539 C22.19874023 12.33805664 22.22194336 13.31258789 22.24584961 14.31665039 C22.04483174 17.1952263 21.6421534 18.73137121 20.05053711 21.11352539 C16.61533231 23.40366192 15.06520611 23.29195512 11.05053711 23.11352539 C10.72053711 23.77352539 10.39053711 24.43352539 10.05053711 25.11352539 C9.06053711 24.45352539 8.07053711 23.79352539 7.05053711 23.11352539 C7.07116211 24.06227539 7.09178711 25.01102539 7.11303711 25.98852539 C7.05053711 29.11352539 7.05053711 29.11352539 6.05053711 31.11352539 C-0.10180664 31.21118164 -0.10180664 31.21118164 -1.94946289 31.11352539 C-3.80660346 29.25638482 -3.0799497 26.1884549 -3.08227539 23.70727539 C-3.08356445 22.40661133 -3.08485352 21.10594727 -3.08618164 19.76586914 C-3.08408691 19.08508301 -3.08199219 18.40429688 -3.07983398 17.70288086 C-3.07448529 15.62224024 -3.07977969 13.5418155 -3.08618164 11.46118164 C-3.08489258 10.16051758 -3.08360352 8.85985352 -3.08227539 7.51977539 C-3.08114746 6.31643555 -3.08001953 5.1130957 -3.07885742 3.87329102 C-2.90518631 0.16918117 -2.90518631 0.16918117 0 0 Z M8.05053711 8.11352539 C7.3589431 9.96077591 7.3589431 9.96077591 7.05053711 12.11352539 C8.04053711 13.59852539 8.04053711 13.59852539 9.05053711 15.11352539 C10.04053711 14.45352539 11.03053711 13.79352539 12.05053711 13.11352539 C11.72053711 11.46352539 11.39053711 9.81352539 11.05053711 8.11352539 C10.06053711 8.11352539 9.07053711 8.11352539 8.05053711 8.11352539 Z " fill="#DEDEDE" transform="translate(377.949462890625,157.886474609375)"/>
<path d="M0 0 C2.97 0 5.94 0 9 0 C9.33 5.94 9.66 11.88 10 18 C14.60532389 19.45314664 14.60532389 19.45314664 17 18 C17.33 12.06 17.66 6.12 18 0 C20.64 0 23.28 0 26 0 C26.86108766 2.93476979 27.07847222 5.39267826 26.9140625 8.44140625 C26.87023437 9.27220703 26.82640625 10.10300781 26.78125 10.95898438 C26.7296875 11.81814453 26.678125 12.67730469 26.625 13.5625 C26.58117187 14.42552734 26.53734375 15.28855469 26.4921875 16.17773438 C26.2950207 19.70209086 26.12317244 22.63048267 25 26 C19.33057151 29.25690573 14.43895834 29.34980257 8 29 C8 28.34 8 27.68 8 27 C5.69 26.34 3.38 25.68 1 25 C0.10250178 21.9317362 -0.11711768 19.20730024 -0.09765625 16.015625 C-0.09443359 15.08105469 -0.09121094 14.14648438 -0.08789062 13.18359375 C-0.07951172 12.21550781 -0.07113281 11.24742187 -0.0625 10.25 C-0.05798828 9.26644531 -0.05347656 8.28289062 -0.04882812 7.26953125 C-0.037065 4.84632806 -0.01913018 2.42315623 0 0 Z " fill="#E9E9E9" transform="translate(227,153)"/>
<path d="M0 0 C2.85111897 1.76098524 3.82100069 3.22408059 5.125 6.3125 C5.69372801 11.52584006 5.0406441 14.93903385 2.125 19.3125 C-0.51014725 21.75942244 -2.41457011 23.18163711 -6.0546875 23.5078125 C-9.91008397 23.28713324 -13.14814713 22.5469202 -16.375 20.375 C-19.78977058 16.19190604 -19.85453049 12.58339772 -19.875 7.3125 C-19.215 7.3125 -18.555 7.3125 -17.875 7.3125 C-17.7821875 6.44625 -17.7821875 6.44625 -17.6875 5.5625 C-14.82416083 -2.36674694 -6.8251386 -1.63209836 0 0 Z M-8.875 7.3125 C-10.09190533 9.07779595 -10.09190533 9.07779595 -10.875 11.3125 C-10.09190533 13.54720405 -10.09190533 13.54720405 -8.875 15.3125 C-7.225 14.6525 -5.575 13.9925 -3.875 13.3125 C-4.205 11.6625 -4.535 10.0125 -4.875 8.3125 C-6.195 7.9825 -7.515 7.6525 -8.875 7.3125 Z " fill="#E6E6E6" transform="translate(521.875,158.6875)"/>
<path d="M0 0 C1.0789762 6.12276174 1.14945519 12.10495639 1.125 18.3125 C1.12886719 19.31345703 1.13273438 20.31441406 1.13671875 21.34570312 C1.13542969 22.30025391 1.13414062 23.25480469 1.1328125 24.23828125 C1.13168457 25.10493408 1.13055664 25.97158691 1.12939453 26.86450195 C1 29 1 29 0 31 C-0.99 31 -1.98 31 -3 31 C-3.33 31.66 -3.66 32.32 -4 33 C-4 32.34 -4 31.68 -4 31 C-5.65 31 -7.3 31 -9 31 C-10.06110748 24.39755346 -9.94290658 18.16367396 -9.5625 11.5 C-9.51029297 10.48679688 -9.45808594 9.47359375 -9.40429688 8.4296875 C-9.27577518 5.95272392 -9.14087234 3.47628663 -9 1 C-5.94152152 0.45627049 -3.11227195 0 0 0 Z " fill="#E7E7E7" transform="translate(537,150)"/>
<path d="M0 0 C0.66 0.33 1.32 0.66 2 1 C1.690625 1.53625 1.38125 2.0725 1.0625 2.625 C-0.17827439 5.3984957 -0.5909675 8.00042837 -1 11 C-1.33 11 -1.66 11 -2 11 C-2.33 7.7 -2.66 4.4 -3 1 C-2.01 0.67 -1.02 0.34 0 0 Z " fill="#8D8D8D" transform="translate(199,196)"/>
<path d="" fill="#8D8D8D" transform="translate(0,0)"/>
<path d="M0 0 C0.66 0.66 1.32 1.32 2 2 C1.34 2 0.68 2 0 2 C0 1.34 0 0.68 0 0 Z " fill="#1C1C1C" transform="translate(416,176)"/>
<path d="M0 0 C2 1 2 1 2 1 Z " fill="#5F5F5F" transform="translate(239,170)"/>
<path d="" fill="#FFFFFF" transform="translate(0,0)"/>
<path d="" fill="#FFFFFF" transform="translate(0,0)"/>
<path d="" fill="#808080" transform="translate(0,0)"/>
<path d="" fill="#808080" transform="translate(0,0)"/>
<path d="" fill="#FFFFFF" transform="translate(0,0)"/>
<path d="" fill="#FFFFFF" transform="translate(0,0)"/>
</svg>
